G04 EAGLE Gerber RS-274X export*
G75*
%MOIN*%
%FSLAX34Y34*%
%LPD*%
%INTop Copper*%
%IPPOS*%
%AMOC8*
5,1,8,0,0,1.08239X$1,22.5*%
G01*
%ADD10R,0.072000X0.072000*%
%ADD11P,0.077932X8X22.500000*%
%ADD12R,0.039370X0.181102*%
%ADD13R,0.066929X0.133858*%
%ADD14R,0.025591X0.049213*%
%ADD15C,0.086000*%
%ADD16R,0.023622X0.086614*%
%ADD17R,0.041000X0.028000*%
%ADD18R,0.050000X0.025000*%
%ADD19C,0.010000*%
%ADD20R,0.023622X0.061024*%
%ADD21R,0.047244X0.078740*%
%ADD22C,0.236220*%
%ADD23C,0.075000*%
%ADD24C,0.050000*%
%ADD25C,0.032000*%
%ADD26C,0.008000*%
%ADD27C,0.020000*%
%ADD28C,0.017811*%
%ADD29C,0.060000*%

G36*
X4221Y1831D02*
X4221Y1831D01*
X4222Y1831D01*
X4226Y1832D01*
X4229Y1832D01*
X4230Y1833D01*
X4231Y1833D01*
X4235Y1835D01*
X4238Y1837D01*
X4239Y1838D01*
X4242Y1841D01*
X4244Y1844D01*
X4245Y1845D01*
X4245Y1846D01*
X4247Y1849D01*
X4248Y1853D01*
X4248Y1854D01*
X4249Y1855D01*
X4249Y1860D01*
X4249Y4540D01*
X4249Y4541D01*
X4249Y4542D01*
X4248Y4546D01*
X4248Y4549D01*
X4247Y4550D01*
X4247Y4551D01*
X4245Y4555D01*
X4243Y4558D01*
X4242Y4559D01*
X4239Y4562D01*
X4236Y4564D01*
X4235Y4565D01*
X4234Y4565D01*
X4231Y4567D01*
X4227Y4568D01*
X4226Y4568D01*
X4225Y4569D01*
X4220Y4569D01*
X2220Y4569D01*
X2216Y4569D01*
X2212Y4568D01*
X2211Y4568D01*
X2207Y4566D01*
X2203Y4564D01*
X2203Y4563D01*
X2202Y4563D01*
X2199Y4561D01*
X2159Y4521D01*
X2157Y4517D01*
X2155Y4514D01*
X2154Y4514D01*
X2154Y4513D01*
X2153Y4509D01*
X2151Y4505D01*
X2151Y4504D01*
X2151Y4503D01*
X2151Y4500D01*
X2151Y2980D01*
X2151Y2976D01*
X2152Y2972D01*
X2152Y2971D01*
X2154Y2967D01*
X2156Y2963D01*
X2157Y2963D01*
X2157Y2962D01*
X2159Y2959D01*
X3279Y1839D01*
X3283Y1837D01*
X3286Y1835D01*
X3286Y1834D01*
X3287Y1834D01*
X3291Y1833D01*
X3295Y1831D01*
X3296Y1831D01*
X3297Y1831D01*
X3300Y1831D01*
X4220Y1831D01*
X4221Y1831D01*
G37*
D10*
X591Y3264D03*
D11*
X591Y4264D03*
X591Y5264D03*
X591Y6264D03*
X591Y7264D03*
X591Y8264D03*
X591Y9264D03*
X591Y10264D03*
X591Y11264D03*
X591Y12264D03*
X591Y13264D03*
X591Y14264D03*
X591Y15264D03*
X591Y16264D03*
X591Y17264D03*
X591Y18264D03*
X591Y19264D03*
X591Y20264D03*
X591Y21264D03*
X591Y22264D03*
X591Y23264D03*
X591Y24264D03*
X591Y25264D03*
X591Y26264D03*
D10*
X19094Y3264D03*
D11*
X19094Y4264D03*
X19094Y5264D03*
X19094Y6264D03*
X19094Y7264D03*
X19094Y8264D03*
X19094Y9264D03*
X19094Y10264D03*
X19094Y11264D03*
X19094Y12264D03*
X19094Y13264D03*
X19094Y14264D03*
X19094Y15264D03*
X19094Y16264D03*
X19094Y17264D03*
X19094Y18264D03*
X19094Y19264D03*
X19094Y20264D03*
X19094Y21264D03*
X19094Y22264D03*
X19094Y23264D03*
X19094Y24264D03*
X19094Y25264D03*
X19094Y26264D03*
D12*
X9518Y2797D03*
X8731Y2797D03*
D13*
X10581Y749D03*
X2944Y749D03*
D12*
X7944Y2797D03*
X7156Y2797D03*
X6369Y2797D03*
X5581Y2797D03*
X4794Y2797D03*
X4007Y2797D03*
D14*
X1405Y31838D03*
X1405Y30362D03*
X795Y31838D03*
X795Y30362D03*
X1405Y34438D03*
X1405Y32962D03*
X795Y34438D03*
X795Y32962D03*
D10*
X1591Y3264D03*
D11*
X1591Y4264D03*
X1591Y5264D03*
X1591Y6264D03*
X1591Y7264D03*
X1591Y8264D03*
X1591Y9264D03*
X1591Y10264D03*
X1591Y11264D03*
X1591Y12264D03*
X1591Y13264D03*
X1591Y14264D03*
X1591Y15264D03*
X1591Y16264D03*
X1591Y17264D03*
X1591Y18264D03*
X1591Y19264D03*
X1591Y20264D03*
X1591Y21264D03*
X1591Y22264D03*
X1591Y23264D03*
X1591Y24264D03*
X1591Y25264D03*
X1591Y26264D03*
D10*
X18094Y3264D03*
D11*
X18094Y4264D03*
X18094Y5264D03*
X18094Y6264D03*
X18094Y7264D03*
X18094Y8264D03*
X18094Y9264D03*
X18094Y10264D03*
X18094Y11264D03*
X18094Y12264D03*
X18094Y13264D03*
X18094Y14264D03*
X18094Y15264D03*
X18094Y16264D03*
X18094Y17264D03*
X18094Y18264D03*
X18094Y19264D03*
X18094Y20264D03*
X18094Y21264D03*
X18094Y22264D03*
X18094Y23264D03*
X18094Y24264D03*
X18094Y25264D03*
X18094Y26264D03*
D15*
X14791Y1400D03*
X16169Y1400D03*
D16*
X17990Y33484D03*
X17990Y31436D03*
X18490Y33484D03*
X17490Y33484D03*
X16990Y33484D03*
X18490Y31436D03*
X17490Y31436D03*
X16990Y31436D03*
D17*
X19240Y32125D03*
X19240Y32715D03*
D18*
X16680Y27340D03*
X16680Y26940D03*
D19*
X16680Y27340D01*
D15*
X12031Y1400D03*
X13409Y1400D03*
D20*
X14238Y33225D03*
X14632Y33225D03*
X15026Y33225D03*
X15419Y33225D03*
D21*
X13726Y34180D03*
X15931Y34180D03*
D22*
X1181Y1181D03*
X18504Y1181D03*
X1181Y28346D03*
X18504Y28346D03*
D23*
X4840Y5700D03*
D24*
X4800Y5660D01*
X4800Y3800D01*
D25*
X4800Y2803D01*
X4794Y2797D01*
D26*
X795Y32962D02*
X795Y34438D01*
X795Y32962D02*
X795Y31838D01*
X795Y30362D01*
D25*
X591Y10264D02*
X1591Y10264D01*
X18094Y6264D02*
X19094Y6264D01*
X19094Y4264D02*
X18094Y4264D01*
X18094Y8264D02*
X19094Y8264D01*
X19094Y10264D02*
X18094Y10264D01*
X18094Y15264D02*
X19094Y15264D01*
X19094Y19264D02*
X18094Y19264D01*
X18094Y22264D02*
X19094Y22264D01*
D26*
X795Y34438D02*
X795Y34555D01*
X1140Y34900D01*
X1660Y34900D01*
X1780Y34780D01*
X1780Y32780D01*
X2980Y31580D02*
X2980Y16240D01*
X2980Y31580D02*
X1780Y32780D01*
X16990Y33210D02*
X16990Y33484D01*
D27*
X14238Y33225D02*
X14233Y33220D01*
X13880Y33220D01*
D28*
X13880Y33220D03*
D27*
X16966Y33460D02*
X16990Y33484D01*
X16966Y33460D02*
X16640Y33460D01*
D28*
X16640Y33460D03*
D27*
X19235Y32720D02*
X19240Y32715D01*
X19235Y32720D02*
X18840Y32720D01*
D28*
X18840Y32720D03*
D26*
X2223Y15483D02*
X2223Y10897D01*
X2223Y15483D02*
X2980Y16240D01*
X2223Y10897D02*
X1591Y10264D01*
X16680Y27340D02*
X17340Y27340D01*
D28*
X17340Y27340D03*
D26*
X17490Y33484D02*
X16990Y33484D01*
X17490Y33484D02*
X17990Y33484D01*
X18490Y33484D01*
D27*
X18094Y10264D02*
X17696Y10264D01*
X17200Y10760D02*
X17200Y14760D01*
X17704Y15264D01*
X18094Y15264D01*
X17200Y10760D02*
X17696Y10264D01*
X17200Y10760D02*
X17200Y8340D01*
X17200Y6300D01*
X17200Y4660D01*
X17596Y4264D02*
X18094Y4264D01*
X17596Y4264D02*
X17200Y4660D01*
X17236Y6264D02*
X18094Y6264D01*
X17236Y6264D02*
X17200Y6300D01*
X17276Y8264D02*
X18094Y8264D01*
X17276Y8264D02*
X17200Y8340D01*
X2016Y10264D02*
X1591Y10264D01*
X1591Y6264D02*
X2264Y6264D01*
X2660Y9620D02*
X2016Y10264D01*
X2660Y9620D02*
X2660Y6660D01*
X2264Y6264D01*
X16990Y33484D02*
X18490Y33484D01*
X17990Y32250D02*
X17990Y31436D01*
X18460Y32720D02*
X18840Y32720D01*
X18460Y32720D02*
X17990Y32250D01*
D26*
X1405Y31838D02*
X1405Y30362D01*
D25*
X1591Y16264D02*
X591Y16264D01*
D26*
X2620Y29080D02*
X1405Y30295D01*
X1405Y30362D01*
X2620Y29080D02*
X2620Y17293D01*
X1591Y16264D01*
X1405Y32962D02*
X1405Y34438D01*
D25*
X1591Y15264D02*
X591Y15264D01*
D26*
X2800Y16477D02*
X2800Y16500D01*
X2800Y31487D01*
X1405Y32882D01*
X1405Y32962D01*
X2800Y16500D02*
X1591Y15291D01*
X1591Y15264D01*
D25*
X1591Y26264D02*
X591Y26264D01*
X591Y11264D02*
X1591Y11264D01*
X1591Y12264D02*
X591Y12264D01*
X591Y13264D02*
X1591Y13264D01*
X1591Y14264D02*
X591Y14264D01*
X591Y9264D02*
X1591Y9264D01*
D26*
X18885Y32125D02*
X19240Y32125D01*
X18490Y31730D02*
X18490Y31680D01*
X18490Y31436D01*
X18490Y31730D02*
X18885Y32125D01*
X18472Y31698D02*
X18490Y31680D01*
D28*
X19240Y31780D03*
D27*
X19240Y32125D01*
X14632Y33225D02*
X14632Y33892D01*
X14640Y33900D01*
D28*
X14640Y33900D03*
D23*
X3840Y5700D03*
D25*
X3847Y5693D02*
X3847Y2957D01*
X4007Y2797D01*
X3847Y5693D02*
X3840Y5700D01*
D29*
X1591Y4264D02*
X591Y4264D01*
X591Y3264D02*
X1591Y3264D01*
X1591Y4264D02*
X2616Y4264D01*
X2620Y4260D01*
X2596Y3264D02*
X1591Y3264D01*
X2596Y3264D02*
X2600Y3260D01*
D25*
X1591Y7264D02*
X591Y7264D01*
X591Y17264D02*
X1591Y17264D01*
X18094Y11264D02*
X19094Y11264D01*
D28*
X16520Y29800D03*
D26*
X16520Y30620D01*
X17000Y31100D01*
X17000Y31426D01*
X16990Y31436D01*
X15026Y32994D02*
X15026Y33225D01*
X15026Y32994D02*
X15220Y32800D01*
X16100Y32800D01*
X16990Y31910D01*
X16990Y31436D01*
D25*
X18094Y12264D02*
X19094Y12264D01*
D28*
X17020Y29800D03*
D26*
X17020Y30200D01*
X17490Y30670D02*
X17490Y31436D01*
X17490Y30670D02*
X17020Y30200D01*
X17490Y31520D02*
X17490Y31730D01*
X17490Y31520D02*
X17490Y31436D01*
X15419Y33105D02*
X15419Y33225D01*
X15544Y33100D01*
X17490Y31749D02*
X17490Y31730D01*
X16139Y33100D02*
X15544Y33100D01*
X16139Y33100D02*
X17490Y31749D01*
D25*
X18094Y13264D02*
X19094Y13264D01*
X19094Y14264D02*
X18094Y14264D01*
X18094Y16264D02*
X19094Y16264D01*
X19094Y17264D02*
X18094Y17264D01*
X18094Y18264D02*
X19094Y18264D01*
X19094Y20264D02*
X18094Y20264D01*
X18094Y21264D02*
X19094Y21264D01*
X19094Y23264D02*
X18094Y23264D01*
X18094Y24264D02*
X19094Y24264D01*
X19094Y25264D02*
X18094Y25264D01*
D26*
X16680Y25820D02*
X16680Y26940D01*
X16680Y25820D02*
X17240Y25260D01*
X18091Y25260D01*
X18094Y25264D01*
D25*
X18094Y26264D02*
X19094Y26264D01*
X19094Y3264D02*
X18094Y3264D01*
X18094Y5264D02*
X19094Y5264D01*
X19094Y7264D02*
X18094Y7264D01*
X18094Y9264D02*
X19094Y9264D01*
X1591Y8264D02*
X591Y8264D01*
X591Y19264D02*
X1591Y19264D01*
X1591Y20264D02*
X591Y20264D01*
X591Y21264D02*
X1591Y21264D01*
X1591Y22264D02*
X591Y22264D01*
X591Y23264D02*
X1591Y23264D01*
X1591Y24264D02*
X591Y24264D01*
X591Y25264D02*
X1591Y25264D01*
D23*
X4840Y31200D03*
X4840Y32200D03*
X4840Y33200D03*
X4840Y34200D03*
X5840Y34200D03*
X5840Y33200D03*
X5840Y32200D03*
X5840Y31200D03*
X6840Y31200D03*
X6840Y32200D03*
X6840Y33200D03*
X6840Y34200D03*
X7840Y34200D03*
X7840Y33200D03*
X7840Y32200D03*
X7840Y31200D03*
X8840Y31200D03*
X8840Y32200D03*
X8840Y33200D03*
X8840Y34200D03*
X9840Y34200D03*
X9840Y33200D03*
X9840Y32200D03*
X9840Y31200D03*
X10840Y31200D03*
X10840Y32200D03*
X10840Y33200D03*
X10840Y34200D03*
X11840Y34200D03*
X11840Y33200D03*
X11840Y32200D03*
X11840Y31200D03*
X12840Y34200D03*
X12840Y33200D03*
X12840Y32200D03*
X12840Y31200D03*
D25*
X1591Y18264D02*
X591Y18264D01*
D23*
X4840Y30200D03*
X5840Y30200D03*
X6840Y30200D03*
X7840Y30200D03*
X8840Y30200D03*
X9840Y30200D03*
X10840Y30200D03*
X11840Y30200D03*
X14840Y30200D03*
X13840Y30200D03*
X12840Y30200D03*
X4840Y29200D03*
X5840Y29200D03*
X6840Y29200D03*
X7840Y29200D03*
X8840Y29200D03*
X9840Y29200D03*
X10840Y29200D03*
X11840Y29200D03*
X14840Y29200D03*
X13840Y29200D03*
X12840Y29200D03*
X4840Y28200D03*
X5840Y28200D03*
X6840Y28200D03*
X7840Y28200D03*
X8840Y28200D03*
X9840Y28200D03*
X10840Y28200D03*
X11840Y28200D03*
X14840Y28200D03*
X13840Y28200D03*
X12840Y28200D03*
X4840Y27200D03*
X5840Y27200D03*
X6840Y27200D03*
X7840Y27200D03*
X8840Y27200D03*
X9840Y27200D03*
X10840Y27200D03*
X11840Y27200D03*
X14840Y27200D03*
X13840Y27200D03*
X12840Y27200D03*
X4840Y26200D03*
X5840Y26200D03*
X6840Y26200D03*
X7840Y26200D03*
X8840Y26200D03*
X9840Y26200D03*
X10840Y26200D03*
X11840Y26200D03*
X14840Y26200D03*
X13840Y26200D03*
X12840Y26200D03*
X4840Y25200D03*
X5840Y25200D03*
X6840Y25200D03*
X7840Y25200D03*
X8840Y25200D03*
X9840Y25200D03*
X10840Y25200D03*
X11840Y25200D03*
X14840Y25200D03*
X13840Y25200D03*
X12840Y25200D03*
X4840Y24200D03*
X5840Y24200D03*
X6840Y24200D03*
X7840Y24200D03*
X8840Y24200D03*
X9840Y24200D03*
X10840Y24200D03*
X11840Y24200D03*
X14840Y24200D03*
X13840Y24200D03*
X12840Y24200D03*
X4840Y23200D03*
X5840Y23200D03*
X6840Y23200D03*
X7840Y23200D03*
X8840Y23200D03*
X9840Y23200D03*
X10840Y23200D03*
X11840Y23200D03*
X14840Y23200D03*
X13840Y23200D03*
X12840Y23200D03*
X4840Y19200D03*
X4840Y20200D03*
X4840Y21200D03*
X4840Y22200D03*
X5840Y22200D03*
X5840Y21200D03*
X5840Y20200D03*
X5840Y19200D03*
X6840Y19200D03*
X6840Y20200D03*
X6840Y21200D03*
X6840Y22200D03*
X7840Y22200D03*
X7840Y21200D03*
X7840Y20200D03*
X7840Y19200D03*
X8840Y19200D03*
X8840Y20200D03*
X8840Y21200D03*
X8840Y22200D03*
X9840Y22200D03*
X9840Y21200D03*
X9840Y20200D03*
X9840Y19200D03*
X10840Y19200D03*
X10840Y20200D03*
X10840Y21200D03*
X10840Y22200D03*
X11840Y22200D03*
X11840Y21200D03*
X11840Y20200D03*
X11840Y19200D03*
X12840Y22200D03*
X13840Y22200D03*
X14840Y22200D03*
X14840Y21200D03*
X14840Y20200D03*
X14840Y19200D03*
X13840Y19200D03*
X13840Y20200D03*
X13840Y21200D03*
X12840Y21200D03*
X12840Y20200D03*
X12840Y19200D03*
X4840Y18200D03*
X5840Y18200D03*
X6840Y18200D03*
X7840Y18200D03*
X8840Y18200D03*
X9840Y18200D03*
X10840Y18200D03*
X11840Y18200D03*
X14840Y18200D03*
X13840Y18200D03*
X12840Y18200D03*
X4840Y17200D03*
X5840Y17200D03*
X6840Y17200D03*
X7840Y17200D03*
X8840Y17200D03*
X9840Y17200D03*
X10840Y17200D03*
X11840Y17200D03*
X14840Y17200D03*
X13840Y17200D03*
X12840Y17200D03*
X4840Y16200D03*
X5840Y16200D03*
X6840Y16200D03*
X7840Y16200D03*
X8840Y16200D03*
X9840Y16200D03*
X10840Y16200D03*
X11840Y16200D03*
X14840Y16200D03*
X13840Y16200D03*
X12840Y16200D03*
X4840Y15200D03*
X5840Y15200D03*
X6840Y15200D03*
X7840Y15200D03*
X8840Y15200D03*
X9840Y15200D03*
X10840Y15200D03*
X11840Y15200D03*
X14840Y15200D03*
X13840Y15200D03*
X12840Y15200D03*
X4840Y14200D03*
X5840Y14200D03*
X6840Y14200D03*
X7840Y14200D03*
X8840Y14200D03*
X9840Y14200D03*
X10840Y14200D03*
X11840Y14200D03*
X14840Y14200D03*
X13840Y14200D03*
X12840Y14200D03*
X4840Y13200D03*
X5840Y13200D03*
X6840Y13200D03*
X7840Y13200D03*
X8840Y13200D03*
X9840Y13200D03*
X10840Y13200D03*
X11840Y13200D03*
X14840Y13200D03*
X13840Y13200D03*
X12840Y13200D03*
X4840Y12200D03*
X5840Y12200D03*
X6840Y12200D03*
X7840Y12200D03*
X8840Y12200D03*
X9840Y12200D03*
X10840Y12200D03*
X11840Y12200D03*
X14840Y12200D03*
X13840Y12200D03*
X12840Y12200D03*
X4840Y11200D03*
X5840Y11200D03*
X6840Y11200D03*
X7840Y11200D03*
X8840Y11200D03*
X9840Y11200D03*
X10840Y11200D03*
X11840Y11200D03*
X14840Y11200D03*
X13840Y11200D03*
X12840Y11200D03*
X4840Y10200D03*
X5840Y10200D03*
X6840Y10200D03*
X7840Y10200D03*
X8840Y10200D03*
X9840Y10200D03*
X10840Y10200D03*
X11840Y10200D03*
X14840Y10200D03*
X13840Y10200D03*
X12840Y10200D03*
X4840Y9200D03*
X5840Y9200D03*
X6840Y9200D03*
X7840Y9200D03*
X8840Y9200D03*
X9840Y9200D03*
X10840Y9200D03*
X11840Y9200D03*
X13840Y9200D03*
X12840Y9200D03*
X4840Y8200D03*
X5840Y8200D03*
X6840Y8200D03*
X7840Y8200D03*
X8840Y8200D03*
X9840Y8200D03*
X10840Y8200D03*
X11840Y8200D03*
X13840Y8200D03*
X12840Y8200D03*
X4840Y7200D03*
X5840Y7200D03*
X6840Y7200D03*
X7840Y7200D03*
X8840Y7200D03*
X9840Y7200D03*
X10840Y7200D03*
X11840Y7200D03*
X13840Y7200D03*
X12840Y7200D03*
X3840Y31200D03*
X3840Y32200D03*
X3840Y33200D03*
X3840Y34200D03*
X3840Y30200D03*
X3840Y29200D03*
X3840Y28200D03*
X3840Y27200D03*
X3840Y26200D03*
X3840Y25200D03*
X3840Y24200D03*
X3840Y23200D03*
X3840Y19200D03*
X3840Y20200D03*
X3840Y21200D03*
X3840Y22200D03*
X3840Y18200D03*
X3840Y17200D03*
X3840Y16200D03*
X3840Y15200D03*
X3840Y14200D03*
X3840Y13200D03*
X3840Y12200D03*
X3840Y11200D03*
X3840Y10200D03*
X3840Y9200D03*
X3840Y8200D03*
X3840Y7200D03*
X15840Y30200D03*
X15840Y29200D03*
X15840Y28200D03*
X15840Y27200D03*
X15840Y26200D03*
X15840Y25200D03*
X15840Y24200D03*
X15840Y23200D03*
X15840Y19200D03*
X15840Y20200D03*
X15840Y21200D03*
X15840Y22200D03*
X15840Y18200D03*
X15840Y17200D03*
X15840Y16200D03*
X15840Y15200D03*
X15840Y14200D03*
X15840Y13200D03*
X15840Y12200D03*
X15840Y11200D03*
X15840Y10200D03*
X14840Y5700D03*
D25*
X14831Y5691D02*
X14831Y1440D01*
X14791Y1400D01*
X14831Y5691D02*
X14840Y5700D01*
D23*
X15840Y5700D03*
D25*
X15840Y1729D02*
X16169Y1400D01*
X15840Y1729D02*
X15840Y5700D01*
D23*
X12840Y5700D03*
D25*
X12031Y1571D02*
X12031Y1400D01*
X12840Y2380D02*
X12840Y5700D01*
X12840Y2380D02*
X12031Y1571D01*
D23*
X13840Y5700D03*
D25*
X13409Y1549D02*
X13409Y1400D01*
X13840Y1980D02*
X13840Y5700D01*
X13840Y1980D02*
X13409Y1549D01*
D23*
X10840Y5700D03*
D25*
X9518Y3698D02*
X9518Y2797D01*
X10840Y5020D02*
X10840Y5700D01*
X10840Y5020D02*
X9518Y3698D01*
D23*
X9840Y5700D03*
D25*
X8731Y3911D02*
X8731Y2797D01*
X9840Y5020D02*
X9840Y5700D01*
X9840Y5020D02*
X8731Y3911D01*
D23*
X8840Y5700D03*
D25*
X7944Y4124D02*
X7944Y2797D01*
X7944Y4124D02*
X8840Y5020D01*
X8840Y5700D01*
D23*
X7840Y5700D03*
D25*
X7176Y4356D02*
X7176Y2817D01*
X7156Y2797D01*
X7840Y5020D02*
X7840Y5700D01*
X7840Y5020D02*
X7176Y4356D01*
D23*
X6840Y5700D03*
D25*
X6369Y4549D02*
X6369Y2797D01*
X6369Y4549D02*
X6840Y5020D01*
X6840Y5700D01*
D23*
X5840Y5700D03*
D25*
X5581Y4761D02*
X5581Y2797D01*
X5840Y5020D02*
X5840Y5700D01*
X5840Y5020D02*
X5581Y4761D01*
D23*
X13840Y32200D03*
X13840Y31200D03*
X14840Y32200D03*
X14840Y31200D03*
X15840Y32200D03*
X15840Y31200D03*
X15840Y9200D03*
X14840Y9200D03*
X15840Y8200D03*
X14840Y8200D03*
X15840Y7200D03*
X14840Y7200D03*
M02*
