G04 EAGLE Gerber RS-274X export*
G75*
%MOIN*%
%FSLAX34Y34*%
%LPD*%
%IN*%
%IPPOS*%
%AMOC8*
5,1,8,0,0,1.08239X$1,22.5*%
G01*
%ADD10C,0.010000*%


D10*
X0Y1181D02*
X4Y1078D01*
X18Y976D01*
X40Y875D01*
X71Y777D01*
X111Y682D01*
X158Y591D01*
X214Y504D01*
X276Y422D01*
X346Y346D01*
X422Y276D01*
X504Y214D01*
X591Y158D01*
X682Y111D01*
X777Y71D01*
X875Y40D01*
X976Y18D01*
X1078Y4D01*
X1181Y0D01*
X18504Y0D01*
X18607Y4D01*
X18709Y18D01*
X18810Y40D01*
X18908Y71D01*
X19003Y111D01*
X19094Y158D01*
X19181Y214D01*
X19263Y276D01*
X19339Y346D01*
X19409Y422D01*
X19471Y504D01*
X19527Y591D01*
X19574Y682D01*
X19614Y777D01*
X19645Y875D01*
X19667Y976D01*
X19681Y1078D01*
X19685Y1181D01*
X19685Y34252D01*
X19681Y34355D01*
X19667Y34457D01*
X19645Y34558D01*
X19614Y34656D01*
X19574Y34751D01*
X19527Y34843D01*
X19471Y34929D01*
X19409Y35011D01*
X19339Y35087D01*
X19263Y35157D01*
X19181Y35219D01*
X19094Y35275D01*
X19003Y35322D01*
X18908Y35362D01*
X18810Y35393D01*
X18709Y35415D01*
X18607Y35429D01*
X18504Y35433D01*
X1181Y35433D01*
X1078Y35429D01*
X976Y35415D01*
X875Y35393D01*
X777Y35362D01*
X682Y35322D01*
X591Y35275D01*
X504Y35219D01*
X422Y35157D01*
X346Y35087D01*
X276Y35011D01*
X214Y34929D01*
X158Y34843D01*
X111Y34751D01*
X71Y34656D01*
X40Y34558D01*
X18Y34457D01*
X4Y34355D01*
X0Y34252D01*
X0Y1181D01*
M02*
