G04 EAGLE Gerber RS-274X export*
G75*
%MOIN*%
%FSLAX34Y34*%
%LPD*%
%INSoldermask Bottom*%
%IPPOS*%
%AMOC8*
5,1,8,0,0,1.08239X$1,22.5*%
G01*
%ADD10R,0.080000X0.080000*%
%ADD11P,0.086591X8X22.500000*%
%ADD12C,0.094000*%
%ADD13C,0.244220*%
%ADD14C,0.083000*%
%ADD15C,0.025811*%


D10*
X591Y3264D03*
D11*
X591Y4264D03*
X591Y5264D03*
X591Y6264D03*
X591Y7264D03*
X591Y8264D03*
X591Y9264D03*
X591Y10264D03*
X591Y11264D03*
X591Y12264D03*
X591Y13264D03*
X591Y14264D03*
X591Y15264D03*
X591Y16264D03*
X591Y17264D03*
X591Y18264D03*
X591Y19264D03*
X591Y20264D03*
X591Y21264D03*
X591Y22264D03*
X591Y23264D03*
X591Y24264D03*
X591Y25264D03*
X591Y26264D03*
D10*
X19094Y3264D03*
D11*
X19094Y4264D03*
X19094Y5264D03*
X19094Y6264D03*
X19094Y7264D03*
X19094Y8264D03*
X19094Y9264D03*
X19094Y10264D03*
X19094Y11264D03*
X19094Y12264D03*
X19094Y13264D03*
X19094Y14264D03*
X19094Y15264D03*
X19094Y16264D03*
X19094Y17264D03*
X19094Y18264D03*
X19094Y19264D03*
X19094Y20264D03*
X19094Y21264D03*
X19094Y22264D03*
X19094Y23264D03*
X19094Y24264D03*
X19094Y25264D03*
X19094Y26264D03*
D10*
X1591Y3264D03*
D11*
X1591Y4264D03*
X1591Y5264D03*
X1591Y6264D03*
X1591Y7264D03*
X1591Y8264D03*
X1591Y9264D03*
X1591Y10264D03*
X1591Y11264D03*
X1591Y12264D03*
X1591Y13264D03*
X1591Y14264D03*
X1591Y15264D03*
X1591Y16264D03*
X1591Y17264D03*
X1591Y18264D03*
X1591Y19264D03*
X1591Y20264D03*
X1591Y21264D03*
X1591Y22264D03*
X1591Y23264D03*
X1591Y24264D03*
X1591Y25264D03*
X1591Y26264D03*
D10*
X18094Y3264D03*
D11*
X18094Y4264D03*
X18094Y5264D03*
X18094Y6264D03*
X18094Y7264D03*
X18094Y8264D03*
X18094Y9264D03*
X18094Y10264D03*
X18094Y11264D03*
X18094Y12264D03*
X18094Y13264D03*
X18094Y14264D03*
X18094Y15264D03*
X18094Y16264D03*
X18094Y17264D03*
X18094Y18264D03*
X18094Y19264D03*
X18094Y20264D03*
X18094Y21264D03*
X18094Y22264D03*
X18094Y23264D03*
X18094Y24264D03*
X18094Y25264D03*
X18094Y26264D03*
D12*
X14791Y1400D03*
X16169Y1400D03*
X12031Y1400D03*
X13409Y1400D03*
D13*
X1181Y1181D03*
X18504Y1181D03*
X1181Y28346D03*
X18504Y28346D03*
D14*
X4840Y5700D03*
D15*
X13880Y33220D03*
X16640Y33460D03*
X18840Y32720D03*
X17340Y27340D03*
X19240Y31780D03*
X14640Y33900D03*
D14*
X3840Y5700D03*
D15*
X16520Y29800D03*
X17020Y29800D03*
D14*
X4840Y31200D03*
X4840Y32200D03*
X4840Y33200D03*
X4840Y34200D03*
X5840Y34200D03*
X5840Y33200D03*
X5840Y32200D03*
X5840Y31200D03*
X6840Y31200D03*
X6840Y32200D03*
X6840Y33200D03*
X6840Y34200D03*
X7840Y34200D03*
X7840Y33200D03*
X7840Y32200D03*
X7840Y31200D03*
X8840Y31200D03*
X8840Y32200D03*
X8840Y33200D03*
X8840Y34200D03*
X9840Y34200D03*
X9840Y33200D03*
X9840Y32200D03*
X9840Y31200D03*
X10840Y31200D03*
X10840Y32200D03*
X10840Y33200D03*
X10840Y34200D03*
X11840Y34200D03*
X11840Y33200D03*
X11840Y32200D03*
X11840Y31200D03*
X12840Y34200D03*
X12840Y33200D03*
X12840Y32200D03*
X12840Y31200D03*
X4840Y30200D03*
X5840Y30200D03*
X6840Y30200D03*
X7840Y30200D03*
X8840Y30200D03*
X9840Y30200D03*
X10840Y30200D03*
X11840Y30200D03*
X14840Y30200D03*
X13840Y30200D03*
X12840Y30200D03*
X4840Y29200D03*
X5840Y29200D03*
X6840Y29200D03*
X7840Y29200D03*
X8840Y29200D03*
X9840Y29200D03*
X10840Y29200D03*
X11840Y29200D03*
X14840Y29200D03*
X13840Y29200D03*
X12840Y29200D03*
X4840Y28200D03*
X5840Y28200D03*
X6840Y28200D03*
X7840Y28200D03*
X8840Y28200D03*
X9840Y28200D03*
X10840Y28200D03*
X11840Y28200D03*
X14840Y28200D03*
X13840Y28200D03*
X12840Y28200D03*
X4840Y27200D03*
X5840Y27200D03*
X6840Y27200D03*
X7840Y27200D03*
X8840Y27200D03*
X9840Y27200D03*
X10840Y27200D03*
X11840Y27200D03*
X14840Y27200D03*
X13840Y27200D03*
X12840Y27200D03*
X4840Y26200D03*
X5840Y26200D03*
X6840Y26200D03*
X7840Y26200D03*
X8840Y26200D03*
X9840Y26200D03*
X10840Y26200D03*
X11840Y26200D03*
X14840Y26200D03*
X13840Y26200D03*
X12840Y26200D03*
X4840Y25200D03*
X5840Y25200D03*
X6840Y25200D03*
X7840Y25200D03*
X8840Y25200D03*
X9840Y25200D03*
X10840Y25200D03*
X11840Y25200D03*
X14840Y25200D03*
X13840Y25200D03*
X12840Y25200D03*
X4840Y24200D03*
X5840Y24200D03*
X6840Y24200D03*
X7840Y24200D03*
X8840Y24200D03*
X9840Y24200D03*
X10840Y24200D03*
X11840Y24200D03*
X14840Y24200D03*
X13840Y24200D03*
X12840Y24200D03*
X4840Y23200D03*
X5840Y23200D03*
X6840Y23200D03*
X7840Y23200D03*
X8840Y23200D03*
X9840Y23200D03*
X10840Y23200D03*
X11840Y23200D03*
X14840Y23200D03*
X13840Y23200D03*
X12840Y23200D03*
X4840Y19200D03*
X4840Y20200D03*
X4840Y21200D03*
X4840Y22200D03*
X5840Y22200D03*
X5840Y21200D03*
X5840Y20200D03*
X5840Y19200D03*
X6840Y19200D03*
X6840Y20200D03*
X6840Y21200D03*
X6840Y22200D03*
X7840Y22200D03*
X7840Y21200D03*
X7840Y20200D03*
X7840Y19200D03*
X8840Y19200D03*
X8840Y20200D03*
X8840Y21200D03*
X8840Y22200D03*
X9840Y22200D03*
X9840Y21200D03*
X9840Y20200D03*
X9840Y19200D03*
X10840Y19200D03*
X10840Y20200D03*
X10840Y21200D03*
X10840Y22200D03*
X11840Y22200D03*
X11840Y21200D03*
X11840Y20200D03*
X11840Y19200D03*
X12840Y22200D03*
X13840Y22200D03*
X14840Y22200D03*
X14840Y21200D03*
X14840Y20200D03*
X14840Y19200D03*
X13840Y19200D03*
X13840Y20200D03*
X13840Y21200D03*
X12840Y21200D03*
X12840Y20200D03*
X12840Y19200D03*
X4840Y18200D03*
X5840Y18200D03*
X6840Y18200D03*
X7840Y18200D03*
X8840Y18200D03*
X9840Y18200D03*
X10840Y18200D03*
X11840Y18200D03*
X14840Y18200D03*
X13840Y18200D03*
X12840Y18200D03*
X4840Y17200D03*
X5840Y17200D03*
X6840Y17200D03*
X7840Y17200D03*
X8840Y17200D03*
X9840Y17200D03*
X10840Y17200D03*
X11840Y17200D03*
X14840Y17200D03*
X13840Y17200D03*
X12840Y17200D03*
X4840Y16200D03*
X5840Y16200D03*
X6840Y16200D03*
X7840Y16200D03*
X8840Y16200D03*
X9840Y16200D03*
X10840Y16200D03*
X11840Y16200D03*
X14840Y16200D03*
X13840Y16200D03*
X12840Y16200D03*
X4840Y15200D03*
X5840Y15200D03*
X6840Y15200D03*
X7840Y15200D03*
X8840Y15200D03*
X9840Y15200D03*
X10840Y15200D03*
X11840Y15200D03*
X14840Y15200D03*
X13840Y15200D03*
X12840Y15200D03*
X4840Y14200D03*
X5840Y14200D03*
X6840Y14200D03*
X7840Y14200D03*
X8840Y14200D03*
X9840Y14200D03*
X10840Y14200D03*
X11840Y14200D03*
X14840Y14200D03*
X13840Y14200D03*
X12840Y14200D03*
X4840Y13200D03*
X5840Y13200D03*
X6840Y13200D03*
X7840Y13200D03*
X8840Y13200D03*
X9840Y13200D03*
X10840Y13200D03*
X11840Y13200D03*
X14840Y13200D03*
X13840Y13200D03*
X12840Y13200D03*
X4840Y12200D03*
X5840Y12200D03*
X6840Y12200D03*
X7840Y12200D03*
X8840Y12200D03*
X9840Y12200D03*
X10840Y12200D03*
X11840Y12200D03*
X14840Y12200D03*
X13840Y12200D03*
X12840Y12200D03*
X4840Y11200D03*
X5840Y11200D03*
X6840Y11200D03*
X7840Y11200D03*
X8840Y11200D03*
X9840Y11200D03*
X10840Y11200D03*
X11840Y11200D03*
X14840Y11200D03*
X13840Y11200D03*
X12840Y11200D03*
X4840Y10200D03*
X5840Y10200D03*
X6840Y10200D03*
X7840Y10200D03*
X8840Y10200D03*
X9840Y10200D03*
X10840Y10200D03*
X11840Y10200D03*
X14840Y10200D03*
X13840Y10200D03*
X12840Y10200D03*
X4840Y9200D03*
X5840Y9200D03*
X6840Y9200D03*
X7840Y9200D03*
X8840Y9200D03*
X9840Y9200D03*
X10840Y9200D03*
X11840Y9200D03*
X13840Y9200D03*
X12840Y9200D03*
X4840Y8200D03*
X5840Y8200D03*
X6840Y8200D03*
X7840Y8200D03*
X8840Y8200D03*
X9840Y8200D03*
X10840Y8200D03*
X11840Y8200D03*
X13840Y8200D03*
X12840Y8200D03*
X4840Y7200D03*
X5840Y7200D03*
X6840Y7200D03*
X7840Y7200D03*
X8840Y7200D03*
X9840Y7200D03*
X10840Y7200D03*
X11840Y7200D03*
X13840Y7200D03*
X12840Y7200D03*
X3840Y31200D03*
X3840Y32200D03*
X3840Y33200D03*
X3840Y34200D03*
X3840Y30200D03*
X3840Y29200D03*
X3840Y28200D03*
X3840Y27200D03*
X3840Y26200D03*
X3840Y25200D03*
X3840Y24200D03*
X3840Y23200D03*
X3840Y19200D03*
X3840Y20200D03*
X3840Y21200D03*
X3840Y22200D03*
X3840Y18200D03*
X3840Y17200D03*
X3840Y16200D03*
X3840Y15200D03*
X3840Y14200D03*
X3840Y13200D03*
X3840Y12200D03*
X3840Y11200D03*
X3840Y10200D03*
X3840Y9200D03*
X3840Y8200D03*
X3840Y7200D03*
X15840Y30200D03*
X15840Y29200D03*
X15840Y28200D03*
X15840Y27200D03*
X15840Y26200D03*
X15840Y25200D03*
X15840Y24200D03*
X15840Y23200D03*
X15840Y19200D03*
X15840Y20200D03*
X15840Y21200D03*
X15840Y22200D03*
X15840Y18200D03*
X15840Y17200D03*
X15840Y16200D03*
X15840Y15200D03*
X15840Y14200D03*
X15840Y13200D03*
X15840Y12200D03*
X15840Y11200D03*
X15840Y10200D03*
X14840Y5700D03*
X15840Y5700D03*
X12840Y5700D03*
X13840Y5700D03*
X10840Y5700D03*
X9840Y5700D03*
X8840Y5700D03*
X7840Y5700D03*
X6840Y5700D03*
X5840Y5700D03*
X13840Y32200D03*
X13840Y31200D03*
X14840Y32200D03*
X14840Y31200D03*
X15840Y32200D03*
X15840Y31200D03*
X15840Y9200D03*
X14840Y9200D03*
X15840Y8200D03*
X14840Y8200D03*
X15840Y7200D03*
X14840Y7200D03*
M02*
