G04 EAGLE Gerber RS-274X export*
G75*
%MOIN*%
%FSLAX34Y34*%
%LPD*%
%INSoldermask Top*%
%IPPOS*%
%AMOC8*
5,1,8,0,0,1.08239X$1,22.5*%
G01*
%ADD10R,0.080000X0.080000*%
%ADD11P,0.086591X8X22.500000*%
%ADD12R,0.047370X0.189102*%
%ADD13R,0.074929X0.141858*%
%ADD14R,0.033591X0.057213*%
%ADD15C,0.094000*%
%ADD16R,0.031622X0.094614*%
%ADD17R,0.049000X0.036000*%
%ADD18R,0.058000X0.033000*%
%ADD19R,0.031622X0.069024*%
%ADD20R,0.055244X0.086740*%
%ADD21C,0.244220*%
%ADD22C,0.083000*%
%ADD23C,0.025811*%

G36*
X16733Y27041D02*
X16733Y27041D01*
X16736Y27041D01*
X16737Y27042D01*
X16739Y27042D01*
X16741Y27044D01*
X16744Y27045D01*
X16745Y27046D01*
X16746Y27047D01*
X16748Y27049D01*
X16750Y27051D01*
X16750Y27052D01*
X16751Y27054D01*
X16752Y27056D01*
X16753Y27059D01*
X16754Y27061D01*
X16754Y27062D01*
X16754Y27063D01*
X16754Y27065D01*
X16754Y27215D01*
X16754Y27218D01*
X16754Y27221D01*
X16753Y27222D01*
X16753Y27224D01*
X16751Y27226D01*
X16750Y27229D01*
X16749Y27230D01*
X16748Y27231D01*
X16746Y27233D01*
X16744Y27235D01*
X16743Y27235D01*
X16741Y27236D01*
X16739Y27237D01*
X16736Y27238D01*
X16734Y27239D01*
X16733Y27239D01*
X16732Y27239D01*
X16730Y27239D01*
X16630Y27239D01*
X16627Y27239D01*
X16624Y27239D01*
X16623Y27238D01*
X16621Y27238D01*
X16619Y27236D01*
X16616Y27235D01*
X16615Y27234D01*
X16614Y27233D01*
X16612Y27231D01*
X16610Y27229D01*
X16610Y27228D01*
X16609Y27226D01*
X16608Y27224D01*
X16607Y27221D01*
X16606Y27219D01*
X16606Y27218D01*
X16606Y27217D01*
X16606Y27215D01*
X16606Y27065D01*
X16606Y27062D01*
X16606Y27059D01*
X16607Y27058D01*
X16607Y27056D01*
X16609Y27054D01*
X16610Y27051D01*
X16611Y27050D01*
X16612Y27049D01*
X16614Y27047D01*
X16616Y27045D01*
X16617Y27045D01*
X16619Y27044D01*
X16621Y27043D01*
X16624Y27042D01*
X16626Y27041D01*
X16627Y27041D01*
X16628Y27041D01*
X16630Y27041D01*
X16730Y27041D01*
X16733Y27041D01*
G37*
D10*
X591Y3264D03*
D11*
X591Y4264D03*
X591Y5264D03*
X591Y6264D03*
X591Y7264D03*
X591Y8264D03*
X591Y9264D03*
X591Y10264D03*
X591Y11264D03*
X591Y12264D03*
X591Y13264D03*
X591Y14264D03*
X591Y15264D03*
X591Y16264D03*
X591Y17264D03*
X591Y18264D03*
X591Y19264D03*
X591Y20264D03*
X591Y21264D03*
X591Y22264D03*
X591Y23264D03*
X591Y24264D03*
X591Y25264D03*
X591Y26264D03*
D10*
X19094Y3264D03*
D11*
X19094Y4264D03*
X19094Y5264D03*
X19094Y6264D03*
X19094Y7264D03*
X19094Y8264D03*
X19094Y9264D03*
X19094Y10264D03*
X19094Y11264D03*
X19094Y12264D03*
X19094Y13264D03*
X19094Y14264D03*
X19094Y15264D03*
X19094Y16264D03*
X19094Y17264D03*
X19094Y18264D03*
X19094Y19264D03*
X19094Y20264D03*
X19094Y21264D03*
X19094Y22264D03*
X19094Y23264D03*
X19094Y24264D03*
X19094Y25264D03*
X19094Y26264D03*
D12*
X9518Y2797D03*
X8731Y2797D03*
D13*
X10581Y749D03*
X2944Y749D03*
D12*
X7944Y2797D03*
X7156Y2797D03*
X6369Y2797D03*
X5581Y2797D03*
X4794Y2797D03*
X4007Y2797D03*
D14*
X1405Y31838D03*
X1405Y30362D03*
X795Y31838D03*
X795Y30362D03*
X1405Y34438D03*
X1405Y32962D03*
X795Y34438D03*
X795Y32962D03*
D10*
X1591Y3264D03*
D11*
X1591Y4264D03*
X1591Y5264D03*
X1591Y6264D03*
X1591Y7264D03*
X1591Y8264D03*
X1591Y9264D03*
X1591Y10264D03*
X1591Y11264D03*
X1591Y12264D03*
X1591Y13264D03*
X1591Y14264D03*
X1591Y15264D03*
X1591Y16264D03*
X1591Y17264D03*
X1591Y18264D03*
X1591Y19264D03*
X1591Y20264D03*
X1591Y21264D03*
X1591Y22264D03*
X1591Y23264D03*
X1591Y24264D03*
X1591Y25264D03*
X1591Y26264D03*
D10*
X18094Y3264D03*
D11*
X18094Y4264D03*
X18094Y5264D03*
X18094Y6264D03*
X18094Y7264D03*
X18094Y8264D03*
X18094Y9264D03*
X18094Y10264D03*
X18094Y11264D03*
X18094Y12264D03*
X18094Y13264D03*
X18094Y14264D03*
X18094Y15264D03*
X18094Y16264D03*
X18094Y17264D03*
X18094Y18264D03*
X18094Y19264D03*
X18094Y20264D03*
X18094Y21264D03*
X18094Y22264D03*
X18094Y23264D03*
X18094Y24264D03*
X18094Y25264D03*
X18094Y26264D03*
D15*
X14791Y1400D03*
X16169Y1400D03*
D16*
X17990Y33484D03*
X17990Y31436D03*
X18490Y33484D03*
X17490Y33484D03*
X16990Y33484D03*
X18490Y31436D03*
X17490Y31436D03*
X16990Y31436D03*
D17*
X19240Y32125D03*
X19240Y32715D03*
D18*
X16680Y27340D03*
X16680Y26940D03*
D15*
X12031Y1400D03*
X13409Y1400D03*
D19*
X14238Y33225D03*
X14632Y33225D03*
X15026Y33225D03*
X15419Y33225D03*
D20*
X13726Y34180D03*
X15931Y34180D03*
D21*
X1181Y1181D03*
X18504Y1181D03*
X1181Y28346D03*
X18504Y28346D03*
D22*
X4840Y5700D03*
D23*
X13880Y33220D03*
X16640Y33460D03*
X18840Y32720D03*
X17340Y27340D03*
X19240Y31780D03*
X14640Y33900D03*
D22*
X3840Y5700D03*
D23*
X16520Y29800D03*
X17020Y29800D03*
D22*
X4840Y31200D03*
X4840Y32200D03*
X4840Y33200D03*
X4840Y34200D03*
X5840Y34200D03*
X5840Y33200D03*
X5840Y32200D03*
X5840Y31200D03*
X6840Y31200D03*
X6840Y32200D03*
X6840Y33200D03*
X6840Y34200D03*
X7840Y34200D03*
X7840Y33200D03*
X7840Y32200D03*
X7840Y31200D03*
X8840Y31200D03*
X8840Y32200D03*
X8840Y33200D03*
X8840Y34200D03*
X9840Y34200D03*
X9840Y33200D03*
X9840Y32200D03*
X9840Y31200D03*
X10840Y31200D03*
X10840Y32200D03*
X10840Y33200D03*
X10840Y34200D03*
X11840Y34200D03*
X11840Y33200D03*
X11840Y32200D03*
X11840Y31200D03*
X12840Y34200D03*
X12840Y33200D03*
X12840Y32200D03*
X12840Y31200D03*
X4840Y30200D03*
X5840Y30200D03*
X6840Y30200D03*
X7840Y30200D03*
X8840Y30200D03*
X9840Y30200D03*
X10840Y30200D03*
X11840Y30200D03*
X14840Y30200D03*
X13840Y30200D03*
X12840Y30200D03*
X4840Y29200D03*
X5840Y29200D03*
X6840Y29200D03*
X7840Y29200D03*
X8840Y29200D03*
X9840Y29200D03*
X10840Y29200D03*
X11840Y29200D03*
X14840Y29200D03*
X13840Y29200D03*
X12840Y29200D03*
X4840Y28200D03*
X5840Y28200D03*
X6840Y28200D03*
X7840Y28200D03*
X8840Y28200D03*
X9840Y28200D03*
X10840Y28200D03*
X11840Y28200D03*
X14840Y28200D03*
X13840Y28200D03*
X12840Y28200D03*
X4840Y27200D03*
X5840Y27200D03*
X6840Y27200D03*
X7840Y27200D03*
X8840Y27200D03*
X9840Y27200D03*
X10840Y27200D03*
X11840Y27200D03*
X14840Y27200D03*
X13840Y27200D03*
X12840Y27200D03*
X4840Y26200D03*
X5840Y26200D03*
X6840Y26200D03*
X7840Y26200D03*
X8840Y26200D03*
X9840Y26200D03*
X10840Y26200D03*
X11840Y26200D03*
X14840Y26200D03*
X13840Y26200D03*
X12840Y26200D03*
X4840Y25200D03*
X5840Y25200D03*
X6840Y25200D03*
X7840Y25200D03*
X8840Y25200D03*
X9840Y25200D03*
X10840Y25200D03*
X11840Y25200D03*
X14840Y25200D03*
X13840Y25200D03*
X12840Y25200D03*
X4840Y24200D03*
X5840Y24200D03*
X6840Y24200D03*
X7840Y24200D03*
X8840Y24200D03*
X9840Y24200D03*
X10840Y24200D03*
X11840Y24200D03*
X14840Y24200D03*
X13840Y24200D03*
X12840Y24200D03*
X4840Y23200D03*
X5840Y23200D03*
X6840Y23200D03*
X7840Y23200D03*
X8840Y23200D03*
X9840Y23200D03*
X10840Y23200D03*
X11840Y23200D03*
X14840Y23200D03*
X13840Y23200D03*
X12840Y23200D03*
X4840Y19200D03*
X4840Y20200D03*
X4840Y21200D03*
X4840Y22200D03*
X5840Y22200D03*
X5840Y21200D03*
X5840Y20200D03*
X5840Y19200D03*
X6840Y19200D03*
X6840Y20200D03*
X6840Y21200D03*
X6840Y22200D03*
X7840Y22200D03*
X7840Y21200D03*
X7840Y20200D03*
X7840Y19200D03*
X8840Y19200D03*
X8840Y20200D03*
X8840Y21200D03*
X8840Y22200D03*
X9840Y22200D03*
X9840Y21200D03*
X9840Y20200D03*
X9840Y19200D03*
X10840Y19200D03*
X10840Y20200D03*
X10840Y21200D03*
X10840Y22200D03*
X11840Y22200D03*
X11840Y21200D03*
X11840Y20200D03*
X11840Y19200D03*
X12840Y22200D03*
X13840Y22200D03*
X14840Y22200D03*
X14840Y21200D03*
X14840Y20200D03*
X14840Y19200D03*
X13840Y19200D03*
X13840Y20200D03*
X13840Y21200D03*
X12840Y21200D03*
X12840Y20200D03*
X12840Y19200D03*
X4840Y18200D03*
X5840Y18200D03*
X6840Y18200D03*
X7840Y18200D03*
X8840Y18200D03*
X9840Y18200D03*
X10840Y18200D03*
X11840Y18200D03*
X14840Y18200D03*
X13840Y18200D03*
X12840Y18200D03*
X4840Y17200D03*
X5840Y17200D03*
X6840Y17200D03*
X7840Y17200D03*
X8840Y17200D03*
X9840Y17200D03*
X10840Y17200D03*
X11840Y17200D03*
X14840Y17200D03*
X13840Y17200D03*
X12840Y17200D03*
X4840Y16200D03*
X5840Y16200D03*
X6840Y16200D03*
X7840Y16200D03*
X8840Y16200D03*
X9840Y16200D03*
X10840Y16200D03*
X11840Y16200D03*
X14840Y16200D03*
X13840Y16200D03*
X12840Y16200D03*
X4840Y15200D03*
X5840Y15200D03*
X6840Y15200D03*
X7840Y15200D03*
X8840Y15200D03*
X9840Y15200D03*
X10840Y15200D03*
X11840Y15200D03*
X14840Y15200D03*
X13840Y15200D03*
X12840Y15200D03*
X4840Y14200D03*
X5840Y14200D03*
X6840Y14200D03*
X7840Y14200D03*
X8840Y14200D03*
X9840Y14200D03*
X10840Y14200D03*
X11840Y14200D03*
X14840Y14200D03*
X13840Y14200D03*
X12840Y14200D03*
X4840Y13200D03*
X5840Y13200D03*
X6840Y13200D03*
X7840Y13200D03*
X8840Y13200D03*
X9840Y13200D03*
X10840Y13200D03*
X11840Y13200D03*
X14840Y13200D03*
X13840Y13200D03*
X12840Y13200D03*
X4840Y12200D03*
X5840Y12200D03*
X6840Y12200D03*
X7840Y12200D03*
X8840Y12200D03*
X9840Y12200D03*
X10840Y12200D03*
X11840Y12200D03*
X14840Y12200D03*
X13840Y12200D03*
X12840Y12200D03*
X4840Y11200D03*
X5840Y11200D03*
X6840Y11200D03*
X7840Y11200D03*
X8840Y11200D03*
X9840Y11200D03*
X10840Y11200D03*
X11840Y11200D03*
X14840Y11200D03*
X13840Y11200D03*
X12840Y11200D03*
X4840Y10200D03*
X5840Y10200D03*
X6840Y10200D03*
X7840Y10200D03*
X8840Y10200D03*
X9840Y10200D03*
X10840Y10200D03*
X11840Y10200D03*
X14840Y10200D03*
X13840Y10200D03*
X12840Y10200D03*
X4840Y9200D03*
X5840Y9200D03*
X6840Y9200D03*
X7840Y9200D03*
X8840Y9200D03*
X9840Y9200D03*
X10840Y9200D03*
X11840Y9200D03*
X13840Y9200D03*
X12840Y9200D03*
X4840Y8200D03*
X5840Y8200D03*
X6840Y8200D03*
X7840Y8200D03*
X8840Y8200D03*
X9840Y8200D03*
X10840Y8200D03*
X11840Y8200D03*
X13840Y8200D03*
X12840Y8200D03*
X4840Y7200D03*
X5840Y7200D03*
X6840Y7200D03*
X7840Y7200D03*
X8840Y7200D03*
X9840Y7200D03*
X10840Y7200D03*
X11840Y7200D03*
X13840Y7200D03*
X12840Y7200D03*
X3840Y31200D03*
X3840Y32200D03*
X3840Y33200D03*
X3840Y34200D03*
X3840Y30200D03*
X3840Y29200D03*
X3840Y28200D03*
X3840Y27200D03*
X3840Y26200D03*
X3840Y25200D03*
X3840Y24200D03*
X3840Y23200D03*
X3840Y19200D03*
X3840Y20200D03*
X3840Y21200D03*
X3840Y22200D03*
X3840Y18200D03*
X3840Y17200D03*
X3840Y16200D03*
X3840Y15200D03*
X3840Y14200D03*
X3840Y13200D03*
X3840Y12200D03*
X3840Y11200D03*
X3840Y10200D03*
X3840Y9200D03*
X3840Y8200D03*
X3840Y7200D03*
X15840Y30200D03*
X15840Y29200D03*
X15840Y28200D03*
X15840Y27200D03*
X15840Y26200D03*
X15840Y25200D03*
X15840Y24200D03*
X15840Y23200D03*
X15840Y19200D03*
X15840Y20200D03*
X15840Y21200D03*
X15840Y22200D03*
X15840Y18200D03*
X15840Y17200D03*
X15840Y16200D03*
X15840Y15200D03*
X15840Y14200D03*
X15840Y13200D03*
X15840Y12200D03*
X15840Y11200D03*
X15840Y10200D03*
X14840Y5700D03*
X15840Y5700D03*
X12840Y5700D03*
X13840Y5700D03*
X10840Y5700D03*
X9840Y5700D03*
X8840Y5700D03*
X7840Y5700D03*
X6840Y5700D03*
X5840Y5700D03*
X13840Y32200D03*
X13840Y31200D03*
X14840Y32200D03*
X14840Y31200D03*
X15840Y32200D03*
X15840Y31200D03*
X15840Y9200D03*
X14840Y9200D03*
X15840Y8200D03*
X14840Y8200D03*
X15840Y7200D03*
X14840Y7200D03*
M02*
