M48
;GenerationSoftware,Autodesk,EAGLE,9.6.2*%
;CreationDate,2026-04-22T15:39:00Z*%
FMAT,2
ICI,OFF
INCH,TZ,000.000
T4C0.012
T3C0.039
T2C0.040
T1C0.126
%
G90
M72
T1
X118Y118
X1850Y118
X118Y2835
X1850Y2835
T2
X484Y570
X384Y570
X484Y3120
X484Y3220
X484Y3320
X484Y3420
X584Y3420
X584Y3320
X584Y3220
X1809Y2626
X1809Y2526
X1809Y2426
X1809Y2326
X1809Y2226
X1809Y2126
X1809Y2026
X1809Y1926
X584Y3120
X684Y3120
X684Y3220
X684Y3320
X684Y3420
X784Y3420
X784Y3320
X784Y3220
X784Y3120
X884Y3120
X884Y3220
X884Y3320
X884Y3420
X984Y3420
X984Y3320
X984Y3220
X984Y3120
X1084Y3120
X1084Y3220
X1084Y3320
X1084Y3420
X1184Y3420
X1184Y3320
X1184Y3220
X1184Y3120
X1284Y3420
X1284Y3320
X1284Y3220
X1284Y3120
X484Y3020
X584Y3020
X684Y3020
X784Y3020
X884Y3020
X984Y3020
X1084Y3020
X1184Y3020
X1484Y3020
X1384Y3020
X1284Y3020
X484Y2920
X584Y2920
X684Y2920
X784Y2920
X884Y2920
X984Y2920
X1084Y2920
X1184Y2920
X1484Y2920
X1384Y2920
X1284Y2920
X484Y2820
X584Y2820
X684Y2820
X784Y2820
X884Y2820
X984Y2820
X1084Y2820
X1184Y2820
X1484Y2820
X1384Y2820
X1284Y2820
X484Y2720
X584Y2720
X684Y2720
X784Y2720
X884Y2720
X984Y2720
X1084Y2720
X1184Y2720
X1484Y2720
X1384Y2720
X1284Y2720
X484Y2620
X584Y2620
X684Y2620
X784Y2620
X884Y2620
X984Y2620
X1084Y2620
X1184Y2620
X1484Y2620
X1384Y2620
X1284Y2620
X484Y2520
X584Y2520
X684Y2520
X784Y2520
X884Y2520
X984Y2520
X1084Y2520
X1184Y2520
X1484Y2520
X1384Y2520
X1284Y2520
X484Y2420
X584Y2420
X684Y2420
X784Y2420
X884Y2420
X984Y2420
X1084Y2420
X1184Y2420
X1484Y2420
X1384Y2420
X1284Y2420
X484Y2320
X584Y2320
X684Y2320
X784Y2320
X884Y2320
X984Y2320
X1084Y2320
X1184Y2320
X1484Y2320
X1384Y2320
X1284Y2320
X484Y1920
X484Y2020
X484Y2120
X484Y2220
X584Y2220
X584Y2120
X584Y2020
X584Y1920
X684Y1920
X684Y2020
X684Y2120
X684Y2220
X784Y2220
X784Y2120
X784Y2020
X784Y1920
X884Y1920
X884Y2020
X884Y2120
X884Y2220
X984Y2220
X984Y2120
X984Y2020
X984Y1920
X1084Y1920
X1084Y2020
X1084Y2120
X1084Y2220
X1184Y2220
X1184Y2120
X1184Y2020
X1184Y1920
X1284Y2220
X1384Y2220
X1484Y2220
X1484Y2120
X1484Y2020
X1484Y1920
X1384Y1920
X1384Y2020
X1384Y2120
X1284Y2120
X1284Y2020
X1284Y1920
X484Y1820
X584Y1820
X684Y1820
X784Y1820
X884Y1820
X984Y1820
X1084Y1820
X1184Y1820
X1484Y1820
X1384Y1820
X1284Y1820
X484Y1720
X584Y1720
X684Y1720
X784Y1720
X884Y1720
X984Y1720
X1084Y1720
X1184Y1720
X1484Y1720
X1384Y1720
X1284Y1720
X484Y1620
X584Y1620
X684Y1620
X784Y1620
X884Y1620
X984Y1620
X1084Y1620
X1184Y1620
X1484Y1620
X1384Y1620
X1284Y1620
X484Y1520
X584Y1520
X684Y1520
X784Y1520
X884Y1520
X984Y1520
X1084Y1520
X1184Y1520
X1484Y1520
X1384Y1520
X1284Y1520
X484Y1420
X584Y1420
X684Y1420
X784Y1420
X884Y1420
X984Y1420
X1084Y1420
X1184Y1420
X1484Y1420
X1384Y1420
X1284Y1420
X484Y1320
X584Y1320
X684Y1320
X784Y1320
X884Y1320
X984Y1320
X1084Y1320
X1184Y1320
X1484Y1320
X1384Y1320
X1284Y1320
X484Y1220
X584Y1220
X684Y1220
X784Y1220
X884Y1220
X984Y1220
X1084Y1220
X1184Y1220
X1484Y1220
X1384Y1220
X1284Y1220
X484Y1120
X584Y1120
X684Y1120
X784Y1120
X884Y1120
X984Y1120
X1084Y1120
X1184Y1120
X1484Y1120
X1384Y1120
X1284Y1120
X484Y1020
X584Y1020
X684Y1020
X784Y1020
X884Y1020
X984Y1020
X1084Y1020
X1184Y1020
X1484Y1020
X1384Y1020
X1284Y1020
X484Y920
X584Y920
X684Y920
X784Y920
X884Y920
X984Y920
X1084Y920
X1184Y920
X1384Y920
X1284Y920
X484Y820
X584Y820
X684Y820
X784Y820
X884Y820
X984Y820
X1084Y820
X1184Y820
X1384Y820
X1284Y820
X484Y720
X584Y720
X684Y720
X784Y720
X884Y720
X984Y720
X1084Y720
X1184Y720
X1384Y720
X1284Y720
X384Y3120
X384Y3220
X384Y3320
X384Y3420
X384Y3020
X384Y2920
X384Y2820
X384Y2720
X384Y2620
X384Y2520
X384Y2420
X384Y2320
X384Y1920
X384Y2020
X384Y2120
X384Y2220
X384Y1820
X384Y1720
X384Y1620
X384Y1520
X384Y1420
X384Y1320
X384Y1220
X384Y1120
X384Y1020
X384Y920
X384Y820
X384Y720
X1584Y3020
X1584Y2920
X1584Y2820
X1584Y2720
X1584Y2620
X1584Y2520
X1584Y2420
X1584Y2320
X1584Y1920
X1584Y2020
X1584Y2120
X1584Y2220
X1584Y1820
X1584Y1720
X1584Y1620
X1584Y1520
X1584Y1420
X1584Y1320
X1584Y1220
X1584Y1120
X1584Y1020
X1484Y570
X1584Y570
X1284Y570
X1384Y570
X1084Y570
X984Y570
X884Y570
X784Y570
X684Y570
X584Y570
X1384Y3220
X1384Y3120
X1484Y3220
X1484Y3120
X1584Y3220
X1584Y3120
X1584Y920
X1484Y920
X1584Y820
X1484Y820
X1584Y720
X1484Y720
X59Y326
X59Y426
X59Y526
X59Y626
X59Y726
X59Y826
X59Y926
X59Y1026
X59Y1126
X59Y1226
X59Y1326
X59Y1426
X59Y1526
X59Y1626
X59Y1726
X59Y1826
X59Y1926
X59Y2026
X59Y2126
X59Y2226
X59Y2326
X59Y2426
X59Y2526
X59Y2626
X1909Y326
X1909Y426
X1909Y526
X1909Y626
X1909Y726
X1909Y826
X1909Y926
X1909Y1026
X1909Y1126
X1909Y1226
X1909Y1326
X1909Y1426
X1909Y1526
X1909Y1626
X1909Y1726
X1909Y1826
X1909Y1926
X1909Y2026
X1909Y2126
X1909Y2226
X1909Y2326
X1909Y2426
X1909Y2526
X1909Y2626
X159Y326
X159Y426
X159Y526
X159Y626
X159Y726
X159Y826
X159Y926
X159Y1026
X159Y1126
X159Y1226
X159Y1326
X159Y1426
X159Y1526
X159Y1626
X159Y1726
X159Y1826
X159Y1926
X159Y2026
X159Y2126
X159Y2226
X159Y2326
X159Y2426
X159Y2526
X159Y2626
X1809Y326
X1809Y426
X1809Y526
X1809Y626
X1809Y726
X1809Y826
X1809Y926
X1809Y1026
X1809Y1126
X1809Y1226
X1809Y1326
X1809Y1426
X1809Y1526
X1809Y1626
X1809Y1726
X1809Y1826
T3
X1479Y140
X1617Y140
X1203Y140
X1341Y140
T4
X1702Y2980
X1652Y2980
X1464Y3390
X1924Y3178
X1734Y2734
X1884Y3272
X1664Y3346
X1388Y3322
M30